#!OML:ASF X:\für Bonn\!DataBase\2005_08_12_Daniel\c3d\Daniel.ASF
:FULLY-SPECIFIED
:DEGREES
129
root 23.0375 15.6105 0.834703 -9.10393 86.5928 -361.845
lowerback 43.6303 -1.98918 3.11724
upperback 6.32818 -0.303556 -1.89843
thorax -13.576 0.174644 -3.66581
lowerneck 2.28103 1.04827 -4.82459
upperneck 3.53683 1.39825 -1.01916
head 0.679556 0.656255 0.479185
rclavicle 2.18663e-015 -1.39149e-015
rhumerus 4.47594 -24.5261 -98.6848
rradius 13.9183
rwrist 39.9266
rhand -21.4319 8.63963
rfingers 7.12502
rthumb 4.95737 -21.2824
lclavicle 2.18663e-015 -1.39149e-015
lhumerus -2.35035 -5.6073 91.8989
lradius 28.3321
lwrist -14.8035
lhand -13.5264 -7.31336
lfingers 7.12502
lthumb 12.5857 22.2875
rfemur -40.063 -4.24989 23.2605
rtibia 61.541
rfoot -12.1756 -2.31374
rtoes -6.99545
lfemur -43.2529 3.74503 -19.5803
ltibia 69.5598
lfoot -14.2085 -1.17171
ltoes -5.09693
130
root 23.1704 15.451 0.839151 -7.45194 86.6078 -360.284
lowerback 44.4345 -2.02144 3.04756
upperback 6.481 -0.303058 -1.92715
thorax -13.6357 0.20129 -3.66443
lowerneck 2.30556 1.05492 -4.83898
upperneck 2.67605 1.37592 -1.09399
head 0.412471 0.658806 0.453556
rclavicle -8.15017e-015 1.49089e-015
rhumerus 2.69069 -26.7301 -97.9277
rradius 14.0658
rwrist 39.1272
rhand -21.9038 7.67614
rfingers 7.12502
rthumb 4.50168 -22.256
lclavicle -8.15017e-015 1.49089e-015
lhumerus -3.71652 -2.8078 91.8656
lradius 27.4357
lwrist -15.2012
lhand -14.6981 -6.23163
lfingers 7.12502
lthumb 11.4559 23.4354
rfemur -41.6342 -4.23116 23.2234
rtibia 64.7246
rfoot -13.801 -2.26483
rtoes -8.10327
lfemur -44.9594 3.75573 -19.6413
ltibia 72.7513
lfoot -15.117 -1.31246
ltoes -5.29039
131
root 23.3005 15.3326 0.843405 -6.33318 86.6037 -359.458
lowerback 45.1758 -2.05495 3.0122
upperback 6.55761 -0.301333 -1.94637
thorax -13.7601 0.219399 -3.67173
lowerneck 2.53148 1.07161 -4.87622
upperneck 1.85973 1.35789 -1.15539
head 0.127529 0.665235 0.436087
rclavicle 4.96962e-016 -9.83984e-015
rhumerus 0.591388 -28.3946 -96.8921
rradius 14.2356
rwrist 37.8383
rhand -22.3915 6.96364
rfingers 7.12502
rthumb 4.0307 -22.978
lclavicle 4.96962e-016 -9.83984e-015
lhumerus -5.18401 0.303758 91.6698
lradius 26.292
lwrist -15.9094
lhand -16.0859 -5.17016
lfingers 7.12502
lthumb 10.1173 24.5666
rfemur -43.1374 -4.1834 23.2251
rtibia 67.4458
rfoot -15.1446 -2.27698
rtoes -9.28915
lfemur -46.3399 3.69943 -19.6559
ltibia 75.2363
lfoot -15.9637 -1.42084
ltoes -5.52485
132
root 23.4288 15.2477 0.847491 -5.50936 86.5836 -359.089
lowerback 45.8172 -2.07601 3.01874
upperback 6.61465 -0.274192 -1.96492
thorax -13.8722 0.243839 -3.71201
lowerneck 2.96502 1.07321 -4.94789
upperneck 1.00875 1.30653 -1.22981
head -0.201717 0.65828 0.421589
rclavicle -6.11263e-015 9.64106e-015
rhumerus -1.71818 -29.4707 -95.587
rradius 14.3824
rwrist 36.1057
rhand -22.7153 6.43158
rfingers 7.12502
rthumb 3.71806 -23.5157
lclavicle -6.11263e-015 9.64106e-015
lhumerus -6.83088 3.44657 91.2385
lradius 25.0869
lwrist -16.7923
lhand -17.3957 -4.20764
lfingers 7.12502
lthumb 8.85355 25.5866
rfemur -44.5345 -4.08039 23.2386
rtibia 69.7038
rfoot -16.2201 -2.30801
rtoes -9.96091
lfemur -47.32 3.54206 -19.6456
ltibia 77.0101
lfoot -16.6589 -1.40849
ltoes -5.75725
133
root 23.5515 15.1808 0.852353 -4.63813 86.5652 -358.832
lowerback 46.1273 -2.08088 3.00086
upperback 6.70693 -0.255215 -1.96265
thorax -13.8471 0.264386 -3.70997
lowerneck 3.18063 1.09081 -5.04988
upperneck 0.695377 1.30489 -1.31904
head -0.333258 0.665755 0.409863
rclavicle 1.16786e-014 6.85807e-015
rhumerus -4.22348 -30.3285 -94.0856
rradius 14.4051
rwrist 34.5236
rhand -22.8911 6.22262
rfingers 7.12502
rthumb 3.54826 -23.7276
lclavicle 1.16786e-014 6.85807e-015
lhumerus -8.77987 6.98195 90.5514
lradius 23.8325
lwrist -18.3936
lhand -18.4033 -3.55724
lfingers 7.12502
lthumb 7.88107 26.2759
rfemur -45.902 -3.89544 23.2394
rtibia 71.5403
rfoot -17.1246 -2.37392
rtoes -10.4353
lfemur -48.1391 3.31696 -19.6298
ltibia 78.2553
lfoot -17.7067 -1.38547
ltoes -5.88751
134
root 23.6684 15.1257 0.857197 -3.84236 86.5695 -358.77
lowerback 46.1503 -2.09005 3.02739
upperback 6.84774 -0.238313 -1.98268
thorax -13.6856 0.283192 -3.75187
lowerneck 3.12385 1.08806 -5.08912
upperneck 0.899243 1.31138 -1.42597
head -0.260683 0.665685 0.38371
rclavicle 1.1281e-014 2.33572e-014
rhumerus -6.79541 -31.4479 -92.4557
rradius 14.1489
rwrist 33.6849
rhand -22.8234 6.40649
rfingers 7.12502
rthumb 3.61369 -23.5426
lclavicle 1.1281e-014 2.33572e-014
lhumerus -10.8354 10.4657 89.4831
lradius 22.2605
lwrist -20.5476
lhand -18.9491 -3.249
lfingers 7.12502
lthumb 7.35424 26.6032
rfemur -47.1333 -3.67876 23.2376
rtibia 72.9265
rfoot -17.9599 -2.41372
rtoes -10.6372
lfemur -48.8676 3.05952 -19.6231
ltibia 79.0952
lfoot -18.7775 -1.3085
ltoes -6.08395
135
root 23.7817 15.0949 0.863047 -3.1804 86.5504 -358.902
lowerback 45.9788 -2.0806 3.03052
upperback 7.02038 -0.217659 -1.98494
thorax -13.4326 0.304577 -3.76178
lowerneck 3.28979 1.10551 -5.19537
upperneck 0.915274 1.32306 -1.51869
head -0.283259 0.673329 0.371938
rclavicle -8.74653e-015 5.46658e-015
rhumerus -9.51543 -32.9139 -90.5721
rradius 13.6133
rwrist 33.7735
rhand -22.4249 7.07171
rfingers 7.12502
rthumb 3.99845 -22.8705
lclavicle -8.74653e-015 5.46658e-015
lhumerus -12.9391 14.2674 88.0324
lradius 20.3654
lwrist -23.6149
lhand -18.8105 -3.37085
lfingers 7.12502
lthumb 7.4881 26.4766
rfemur -48.0763 -3.37849 23.2253
rtibia 73.796
rfoot -18.677 -2.44069
rtoes -10.7564
lfemur -49.4271 2.80993 -19.5984
ltibia 79.5629
lfoot -19.8318 -1.2336
ltoes -6.26249
136
root 23.8904 15.0929 0.869343 -2.5303 86.5535 -359.128
lowerback 45.6657 -2.07298 3.04415
upperback 7.20286 -0.204238 -1.99244
thorax -13.1301 0.321491 -3.7782
lowerneck 3.65514 1.1192 -5.27322
upperneck 0.657449 1.30742 -1.59812
head -0.422653 0.674548 0.358985
rclavicle -3.3048e-014 -6.75868e-015
rhumerus -12.5279 -33.3225 -88.5702
rradius 13.1745
rwrist 33.319
rhand -21.7031 7.99332
rfingers 7.12502
rthumb 4.69542 -21.9347
lclavicle -3.3048e-014 -6.75868e-015
lhumerus -15.2657 18.1023 86.1199
lradius 18.5883
lwrist -27.4754
lhand -17.9331 -3.74889
lfingers 7.12502
lthumb 8.33492 26.0667
rfemur -48.7542 -3.07885 23.2148
rtibia 74.1175
rfoot -19.1424 -2.52826
rtoes -10.7563
lfemur -49.8603 2.50562 -19.5821
ltibia 79.6729
lfoot -20.7541 -1.04193
ltoes -6.35507
